<svg xmlns="http://www.w3.org/2000/svg" xmlns:xlink="http://www.w3.org/1999/xlink" width="1080" zoomAndPan="magnify" viewBox="0 0 810 809.999993" height="1080" preserveAspectRatio="xMidYMid meet" version="1.0"><path fill="#979797" d="M 72.855469 423.996094 C 85.515625 433.75 101.640625 432.703125 116.613281 427.28125 C 114.535156 487.710938 118.710938 424.621094 107.089844 587.945312 C 102.765625 649.40625 119.589844 672.535156 186.226562 677.574219 C 282.542969 684.765625 374.613281 688.964844 464.515625 690.609375 C 483.25 690.96875 501.179688 690.746094 517.304688 682.484375 C 536.824219 700.015625 557.890625 715.425781 580.058594 728.171875 C 582.148438 729.359375 584.734375 729.019531 586.441406 727.335938 C 643.117188 671.105469 716.507812 619.644531 732.601562 574.019531 C 732.601562 574.019531 732.601562 574.011719 732.609375 574 C 752.585938 516.738281 707.125 458.941406 648.609375 462.386719 C 625.953125 463.703125 602.417969 478.484375 586.738281 500.746094 C 584.300781 497.246094 581.5 494 578.519531 490.949219 C 582.050781 470.308594 587.097656 438.960938 588.785156 418.054688 C 601.824219 427.21875 615.785156 428.9375 619.148438 427.25 C 628.65625 426.09375 637.265625 420.6875 643.40625 412.042969 C 667.070312 378.6875 642.375 345.523438 615.574219 318.066406 L 461.304688 160.011719 C 389.222656 86.046875 344.609375 81.316406 269.832031 149.308594 C 236.691406 179.515625 74.109375 334.101562 60.898438 376.820312 C 56.191406 392.1875 58.066406 412.730469 72.855469 423.996094 Z M 257.640625 325.183594 C 256.367188 326.457031 256.472656 328.863281 258.921875 329.46875 L 243.285156 345.109375 L 233.382812 335.203125 C 242.128906 326.570312 250.640625 317.960938 258.722656 309.613281 L 265.960938 316.855469 Z M 230.339844 354.378906 C 229.300781 353.339844 227.625 353.339844 226.585938 354.378906 L 214.296875 366.671875 L 207.609375 359.980469 C 214.964844 353.097656 222.347656 346.066406 229.617188 338.9375 L 239.53125 348.863281 L 230.382812 358.015625 C 231.324219 356.957031 231.335938 355.375 230.339844 354.378906 Z M 130.585938 436.996094 C 131.625 438.035156 133.300781 438.035156 134.328125 436.996094 L 140.796875 430.527344 L 147.25 436.988281 L 133.605469 450.625 L 126.726562 443.742188 C 126.851562 436.710938 126.96875 429.691406 127.289062 422.710938 C 128.527344 422.105469 129.714844 421.320312 130.945312 420.664062 L 137.050781 426.773438 L 130.585938 433.242188 C 129.546875 434.28125 129.546875 435.957031 130.585938 436.996094 Z M 122.898438 515.117188 L 128.71875 520.941406 L 122.007812 527.652344 Z M 125.304688 481.265625 C 125.707031 475.632812 125.804688 474.59375 126.144531 465.601562 L 133.617188 458.125 L 142.46875 466.96875 C 143.359375 467.859375 144.601562 468.082031 145.894531 467.105469 L 128.519531 484.488281 Z M 126.417969 457.828125 C 126.472656 455.558594 126.523438 453.308594 126.566406 451.058594 L 129.875 454.367188 Z M 135.757812 417.96875 C 136.714844 417.398438 137.71875 416.941406 138.664062 416.347656 C 143.539062 413.335938 148.957031 409.484375 154.566406 405.308594 L 156.550781 407.289062 L 140.804688 423.03125 Z M 158.839844 402.09375 C 163.535156 398.476562 168.371094 394.628906 173.394531 390.4375 L 160.292969 403.546875 Z M 203.738281 363.605469 L 210.554688 370.425781 L 194.832031 386.152344 L 187.230469 378.550781 C 192.660156 373.757812 198.183594 368.75 203.738281 363.605469 Z M 262.398438 305.773438 C 269.257812 298.636719 275.800781 291.734375 281.75 285.316406 L 289.625 293.195312 L 269.726562 313.101562 Z M 291.140625 539.976562 L 298.117188 546.964844 L 290.390625 554.699219 C 289.351562 555.738281 289.351562 557.414062 290.390625 558.453125 C 291.429688 559.492188 293.105469 559.492188 294.144531 558.453125 L 301.871094 550.71875 L 318.082031 566.9375 C 319.121094 567.976562 320.796875 567.976562 321.824219 566.9375 C 322.863281 565.898438 322.863281 564.222656 321.824219 563.183594 L 305.613281 546.964844 L 315.050781 537.527344 C 316.089844 536.488281 316.089844 534.8125 315.050781 533.773438 C 314.011719 532.734375 312.335938 532.734375 311.296875 533.773438 L 301.859375 543.210938 L 294.980469 536.328125 C 299.632812 532.703125 305.242188 530.285156 311.433594 528.734375 L 326.457031 543.761719 L 324.21875 546 C 323.179688 547.039062 323.179688 548.714844 324.21875 549.753906 C 325.257812 550.792969 326.933594 550.792969 327.972656 549.753906 L 330.210938 547.519531 L 332.320312 549.628906 C 333.359375 550.667969 335.035156 550.667969 336.0625 549.628906 C 337.101562 548.589844 337.101562 546.914062 336.0625 545.875 L 333.953125 543.761719 L 343.292969 534.410156 C 344.332031 533.371094 344.332031 531.695312 343.292969 530.65625 C 342.253906 529.617188 340.578125 529.617188 339.550781 530.65625 L 330.199219 540.007812 L 317.648438 527.453125 C 324.886719 526.328125 332.628906 526.050781 340.429688 526.285156 C 340.539062 526.476562 340.515625 526.710938 340.675781 526.867188 L 351.605469 537.804688 L 348.445312 540.964844 C 347.40625 542.003906 347.40625 543.679688 348.445312 544.71875 C 349.484375 545.757812 351.160156 545.757812 352.1875 544.71875 L 355.347656 541.558594 L 361.953125 548.164062 C 362.992188 549.203125 364.667969 549.203125 365.707031 548.164062 C 366.746094 547.125 366.746094 545.449219 365.707031 544.410156 L 359.101562 537.804688 L 366.789062 530.113281 L 373.328125 536.65625 L 370.859375 539.128906 C 369.820312 540.167969 369.820312 541.84375 370.859375 542.882812 C 371.898438 543.921875 373.574219 543.921875 374.613281 542.882812 L 377.082031 540.410156 L 381.664062 544.992188 C 382.703125 546.03125 384.375 546.03125 385.414062 544.992188 C 386.453125 543.953125 386.453125 542.277344 385.414062 541.238281 L 380.835938 536.65625 L 384.410156 533.082031 C 406.894531 542.097656 407.667969 558.707031 406.90625 580.691406 C 404.582031 636.667969 403.554688 670.023438 402.707031 678.410156 C 363.839844 677.265625 331.492188 675.910156 285.820312 673.320312 L 290.878906 668.261719 L 292.457031 669.84375 C 293.496094 670.882812 295.171875 670.882812 296.210938 669.84375 C 297.25 668.804688 297.25 667.128906 296.210938 666.085938 L 294.628906 664.507812 L 308.582031 650.550781 C 309.621094 649.511719 309.621094 647.835938 308.582031 646.796875 C 307.542969 645.757812 305.867188 645.757812 304.828125 646.796875 L 290.878906 660.753906 L 285.152344 655.027344 C 285.046875 652.765625 284.929688 650.496094 284.824219 648.238281 L 292.710938 640.347656 L 299.730469 647.367188 C 300.769531 648.410156 302.445312 648.410156 303.472656 647.367188 C 304.511719 646.328125 304.511719 644.652344 303.472656 643.613281 L 296.453125 636.59375 L 310.691406 622.351562 C 311.730469 621.3125 311.730469 619.636719 310.691406 618.605469 C 309.652344 617.566406 307.976562 617.566406 306.9375 618.605469 L 292.699219 632.851562 L 284.058594 624.207031 C 283.945312 624.089844 283.761719 624.121094 283.625 624.027344 C 283.53125 622.148438 283.445312 620.273438 283.351562 618.40625 C 283.433594 618.53125 283.402344 618.703125 283.519531 618.820312 C 284.558594 619.859375 286.234375 619.859375 287.273438 618.820312 L 293.855469 612.234375 L 299.179688 617.558594 C 300.21875 618.597656 301.894531 618.597656 302.933594 617.558594 C 303.972656 616.515625 303.972656 614.839844 302.933594 613.800781 L 297.609375 608.476562 L 315.898438 590.183594 C 316.9375 589.144531 316.9375 587.46875 315.898438 586.429688 C 314.859375 585.390625 313.183594 585.390625 312.144531 586.429688 L 307.449219 591.128906 C 307.882812 590.152344 307.894531 589.027344 307.097656 588.222656 L 295.320312 576.4375 L 309.21875 562.535156 C 310.257812 561.496094 310.257812 559.820312 309.21875 558.78125 C 308.179688 557.742188 306.503906 557.742188 305.464844 558.78125 L 291.566406 572.683594 L 283.148438 564.273438 C 282.746094 563.871094 282.214844 563.765625 281.695312 563.667969 C 282.609375 553.839844 284.972656 546.679688 291.140625 539.976562 Z M 347.96875 526.65625 C 348.765625 526.710938 349.582031 526.730469 350.375 526.785156 C 354.160156 527.039062 357.914062 527.398438 361.613281 527.824219 L 355.378906 534.058594 Z M 374.019531 529.839844 C 375.683594 530.210938 377.285156 530.675781 378.875 531.144531 L 377.101562 532.914062 Z M 281.960938 589.84375 L 291.585938 580.214844 L 303.367188 591.996094 C 304.511719 593.144531 305.296875 592.78125 306.269531 592.347656 L 293.878906 604.746094 L 282.121094 592.984375 C 282.054688 591.933594 282.015625 590.894531 281.960938 589.84375 Z M 290.125 608.488281 L 283.539062 615.074219 C 283.339844 615.277344 283.359375 615.550781 283.242188 615.796875 C 283 610.820312 282.757812 605.859375 282.511719 600.863281 Z M 284.019531 631.664062 L 288.980469 636.625 L 284.484375 641.121094 C 284.324219 637.972656 284.167969 634.8125 284.019531 631.664062 Z M 285.183594 666.492188 C 285.269531 665.269531 285.257812 663.945312 285.28125 662.664062 L 287.144531 664.527344 Z M 281.378906 570.011719 L 287.835938 576.472656 L 281.609375 582.695312 C 281.410156 578.304688 281.292969 574.074219 281.378906 570.011719 Z M 586.535156 515.957031 C 588.527344 515.785156 590.226562 514.980469 591.191406 513.335938 C 604.84375 490.054688 627.617188 474.210938 649.171875 472.960938 C 702.300781 470.109375 739.386719 522.285156 722.582031 570.488281 C 707.972656 611.914062 636.578125 663.296875 581.859375 716.941406 C 534.257812 688.816406 492.773438 648.714844 464.664062 605.488281 L 467.390625 602.761719 L 472.5 607.875 C 473.539062 608.914062 475.214844 608.914062 476.253906 607.875 C 477.292969 606.835938 477.292969 605.160156 476.253906 604.121094 L 471.144531 599.007812 L 484.535156 585.601562 C 485.574219 584.5625 485.574219 582.886719 484.535156 581.847656 C 483.496094 580.808594 481.820312 580.808594 480.78125 581.847656 L 467.390625 595.242188 L 453.789062 581.636719 C 453.988281 581.519531 454.242188 581.550781 454.414062 581.382812 L 463.542969 572.25 L 473.347656 582.058594 C 474.386719 583.097656 476.0625 583.097656 477.089844 582.058594 C 478.128906 581.019531 478.128906 579.34375 477.089844 578.304688 L 467.285156 568.496094 L 476.667969 559.109375 C 477.707031 558.070312 477.707031 556.394531 476.667969 555.355469 C 475.808594 554.507812 474.589844 554.527344 473.582031 555.078125 C 473.675781 554.292969 473.539062 553.5 472.933594 552.894531 L 461.316406 541.269531 L 471.652344 530.929688 L 477.863281 537.144531 C 478.902344 538.183594 480.578125 538.183594 481.617188 537.144531 C 482.65625 536.105469 482.65625 534.429688 481.617188 533.390625 L 475.382812 527.21875 L 483.242188 519.359375 C 484.28125 518.320312 484.28125 516.644531 483.242188 515.605469 C 482.203125 514.566406 480.527344 514.566406 479.488281 515.605469 L 471.632812 523.464844 L 466.5 518.332031 L 485.136719 499.695312 L 491.53125 506.09375 C 491.179688 507.035156 491.191406 508.074219 491.957031 508.828125 C 493.035156 509.910156 493.734375 509.601562 494.691406 509.242188 L 498.71875 513.261719 C 499.757812 514.300781 501.433594 514.300781 502.472656 513.261719 C 503.511719 512.222656 503.511719 510.546875 502.472656 509.507812 L 498.742188 505.773438 L 512.734375 491.765625 L 519.699219 498.730469 C 519.351562 499.675781 519.363281 500.714844 520.125 501.46875 C 521.195312 502.539062 522.246094 502.359375 523.328125 501.691406 C 524.226562 501.976562 524.863281 502.316406 525.957031 501.222656 C 526.613281 500.566406 526.699219 499.675781 526.519531 498.828125 L 538.984375 486.355469 L 549.132812 496.503906 L 544.839844 500.8125 C 543.800781 501.851562 543.800781 503.527344 544.839844 504.566406 C 545.878906 505.605469 547.550781 505.605469 548.582031 504.566406 L 552.886719 500.257812 L 556.5625 503.9375 C 557.601562 504.980469 559.277344 504.980469 560.316406 503.9375 C 561.355469 502.898438 561.355469 501.222656 560.316406 500.183594 L 556.636719 496.503906 L 562.417969 490.726562 C 570.367188 496.792969 576.835938 503.683594 582 513.167969 C 582.878906 514.875 584.628906 515.921875 586.535156 515.957031 Z M 544.742188 480.617188 C 547.320312 481.679688 549.832031 482.898438 552.300781 484.234375 C 553.128906 484.679688 553.925781 485.167969 554.742188 485.644531 C 555.832031 486.292969 556.871094 487.011719 557.941406 487.710938 L 552.875 492.78125 L 542.632812 482.539062 C 543.226562 481.742188 543.238281 480.808594 542.835938 479.929688 C 543.289062 480.097656 543.757812 480.203125 544.203125 480.382812 C 544.382812 480.457031 544.5625 480.542969 544.742188 480.617188 Z M 538.613281 478.527344 C 538.902344 478.613281 539.175781 478.71875 539.460938 478.816406 C 539.335938 478.878906 539.1875 478.890625 539.058594 478.984375 Z M 528.703125 476.109375 L 535.222656 482.632812 L 523.144531 494.710938 L 516.476562 488.042969 L 517.886719 486.632812 C 518.925781 485.589844 518.925781 483.917969 517.886719 482.875 C 516.847656 481.835938 515.171875 481.835938 514.132812 482.875 L 512.722656 484.289062 L 504.433594 475.992188 C 511.125 474.847656 517.960938 474.648438 524.769531 475.464844 C 527.429688 475.78125 527.671875 475.929688 528.703125 476.109375 Z M 497.339844 477.476562 C 497.636719 477.394531 497.945312 477.371094 498.242188 477.289062 L 508.980469 488.03125 L 494.988281 502.039062 L 488.890625 495.941406 L 491.847656 492.984375 C 492.886719 491.945312 492.886719 490.269531 491.847656 489.230469 C 490.808594 488.191406 489.136719 488.191406 488.097656 489.230469 L 485.136719 492.1875 L 479.074219 486.121094 C 484.746094 482.453125 490.800781 479.355469 497.339844 477.476562 Z M 474.558594 489.125 L 481.386719 495.953125 L 462.746094 514.585938 L 456.691406 508.53125 C 461.539062 501.109375 467.539062 494.46875 474.558594 489.125 Z M 453.90625 513.230469 L 459.003906 518.332031 L 456.058594 521.28125 C 455.019531 522.320312 455.019531 523.996094 456.058594 525.035156 C 457.09375 526.074219 458.769531 526.074219 459.808594 525.035156 L 462.757812 522.085938 L 467.886719 527.21875 L 457.550781 537.558594 L 447.566406 527.570312 C 449.121094 522.574219 451.347656 517.820312 453.90625 513.230469 Z M 446.15625 533.65625 L 453.796875 541.300781 L 446.9375 548.175781 L 444.597656 545.832031 C 444.753906 541.726562 445.273438 537.675781 446.15625 533.65625 Z M 457.550781 545.058594 L 469.171875 556.679688 C 469.648438 557.15625 470.273438 557.359375 470.898438 557.402344 L 463.53125 564.773438 L 450.679688 551.929688 Z M 446.9375 555.671875 L 459.789062 568.515625 L 450.660156 577.648438 C 450.492188 577.816406 450.511719 578.070312 450.40625 578.273438 L 450.320312 578.1875 C 447.796875 571.625 445.984375 564.710938 445.042969 557.59375 Z M 456.757812 592.125 L 463.636719 599.019531 L 461.75 600.90625 C 460.023438 598.085938 458.355469 595.148438 456.757812 592.125 Z M 569.167969 482.515625 C 548.433594 466.609375 519.097656 460.179688 494.425781 467.296875 C 458.019531 477.722656 431.394531 515.5 433.824219 553.296875 C 436.664062 596.589844 477.738281 645.035156 508.90625 674.816406 C 496.25 680.117188 481.3125 680.351562 464.71875 680.003906 C 447.597656 679.695312 430.398438 679.269531 413.257812 678.738281 C 414.519531 665.503906 414.082031 663.871094 417.519531 581.117188 C 417.519531 581.105469 417.519531 581.09375 417.519531 581.085938 C 418.898438 541.578125 409.238281 520.089844 351.097656 516.199219 C 253.453125 509.527344 270.222656 562.078125 274.6875 657.6875 C 275.015625 664.347656 274.507812 668.960938 273.722656 672.683594 C 245.945312 671.136719 217.554688 669.28125 187.019531 667 C 126.375 662.417969 113.761719 644.355469 117.660156 588.699219 L 121.59375 533.507812 C 122.515625 533.773438 123.132812 534.027344 124.140625 533.007812 L 132.589844 524.554688 C 133.882812 525.449219 135.015625 525.277344 135.917969 524.375 C 136.839844 523.453125 136.808594 522.085938 136.097656 521.046875 L 157.449219 499.6875 C 158.488281 498.648438 158.488281 496.972656 157.449219 495.933594 C 156.410156 494.894531 154.738281 494.894531 153.707031 495.933594 L 132.472656 517.175781 L 123.398438 508.117188 L 124.246094 496.269531 L 128.527344 491.988281 L 138.472656 501.933594 C 139.511719 502.972656 141.1875 502.972656 142.214844 501.933594 C 143.253906 500.894531 143.253906 499.21875 142.214844 498.179688 L 132.269531 488.234375 L 150.941406 469.554688 C 151.980469 468.515625 151.980469 466.839844 150.941406 465.800781 C 149.902344 464.761719 148.226562 464.761719 147.1875 465.800781 L 146.339844 466.648438 C 147.125 465.609375 147.15625 464.167969 146.203125 463.222656 L 137.359375 454.378906 L 151.003906 440.742188 L 151.25 440.984375 C 152.289062 442.023438 153.960938 442.023438 155 440.984375 C 156.039062 439.945312 156.039062 438.269531 155 437.230469 L 144.558594 426.785156 L 160.292969 411.054688 L 172.199219 422.964844 C 173.238281 424.003906 174.914062 424.003906 175.953125 422.964844 C 176.992188 421.925781 176.992188 420.25 175.953125 419.210938 L 164.046875 407.300781 L 183.519531 387.820312 C 184.558594 386.78125 184.558594 385.105469 183.519531 384.066406 C 183.023438 383.566406 182.375 383.332031 181.71875 383.320312 C 182.21875 382.886719 182.714844 382.464844 183.214844 382.027344 L 191.089844 389.910156 L 181.144531 399.855469 C 180.105469 400.894531 180.105469 402.570312 181.144531 403.609375 C 182.183594 404.648438 183.859375 404.648438 184.898438 403.609375 L 194.84375 393.664062 L 201.058594 399.878906 C 202.097656 400.917969 203.769531 400.917969 204.808594 399.878906 C 205.847656 398.839844 205.847656 397.164062 204.808594 396.125 L 198.597656 389.910156 L 214.320312 374.179688 L 220.871094 380.734375 C 221.910156 381.773438 223.585938 381.773438 224.625 380.734375 C 225.664062 379.695312 225.664062 378.019531 224.625 376.980469 L 218.074219 370.425781 L 229.789062 358.707031 C 228.855469 359.746094 228.835938 361.328125 229.839844 362.332031 C 230.878906 363.375 232.554688 363.375 233.59375 362.332031 L 243.316406 352.609375 L 245.820312 355.113281 C 246.859375 356.152344 248.53125 356.152344 249.570312 355.113281 C 250.609375 354.070312 250.609375 352.394531 249.570312 351.367188 L 247.070312 348.863281 L 264.476562 331.449219 C 265.515625 330.410156 265.515625 328.734375 264.476562 327.695312 C 264.128906 327.347656 263.652344 327.273438 263.195312 327.164062 L 269.746094 320.613281 L 274.019531 324.886719 C 275.058594 325.925781 276.734375 325.925781 277.773438 324.886719 C 278.8125 323.847656 278.8125 322.171875 277.773438 321.132812 L 273.5 316.855469 L 293.402344 296.949219 L 295.722656 299.273438 C 296.761719 300.3125 298.4375 300.3125 299.476562 299.273438 C 300.515625 298.234375 300.515625 296.558594 299.476562 295.519531 L 297.152344 293.195312 L 298.140625 292.210938 C 299.179688 291.171875 299.179688 289.496094 298.140625 288.457031 C 296.421875 286.738281 294.90625 287.9375 293.410156 289.441406 L 285.375 281.402344 C 291.40625 274.835938 296.824219 268.824219 301.375 263.617188 L 306.355469 268.601562 L 291.535156 283.429688 C 290.496094 284.46875 290.496094 286.144531 291.535156 287.183594 C 292.574219 288.222656 294.25 288.222656 295.289062 287.183594 L 310.109375 272.355469 L 317.953125 280.203125 C 318.992188 281.242188 320.667969 281.242188 321.707031 280.203125 C 322.746094 279.164062 322.746094 277.488281 321.707031 276.460938 L 313.863281 268.613281 L 317.382812 265.089844 C 318.421875 264.050781 318.421875 262.375 317.382812 261.335938 C 316.34375 260.296875 314.667969 260.296875 313.628906 261.335938 L 310.109375 264.859375 L 304.796875 259.597656 C 310.246094 253.246094 314.296875 248.25 316.097656 245.546875 C 317.847656 242.882812 320.425781 238.9375 321.824219 236.816406 L 331.566406 246.5625 L 327.179688 250.945312 C 326.140625 251.984375 326.140625 253.660156 327.179688 254.699219 C 328.21875 255.738281 329.894531 255.738281 330.933594 254.699219 L 335.320312 250.308594 L 337.867188 252.851562 C 338.90625 253.890625 340.578125 253.890625 341.609375 252.851562 C 342.648438 251.8125 342.648438 250.136719 341.609375 249.097656 L 339.0625 246.554688 L 351.5625 234.050781 C 352.601562 233.007812 352.601562 231.332031 351.5625 230.304688 C 350.523438 229.265625 348.847656 229.265625 347.808594 230.304688 L 335.308594 242.808594 L 324.847656 232.339844 C 329.246094 225.96875 333.941406 219.984375 339.53125 215.5625 L 363.9375 239.976562 C 364.976562 241.015625 366.648438 241.015625 367.6875 239.976562 C 368.726562 238.9375 368.726562 237.261719 367.6875 236.222656 L 344.015625 212.539062 C 355.484375 205.839844 367.191406 207.3125 378.726562 213.761719 L 366.128906 226.359375 C 365.089844 227.398438 365.089844 229.074219 366.128906 230.113281 C 367.167969 231.152344 368.84375 231.152344 369.871094 230.113281 L 383.378906 216.601562 C 390.855469 221.628906 397.894531 228.226562 404.382812 234.726562 L 570.949219 402.488281 C 571.226562 402.761719 577.257812 408.585938 578.734375 409.921875 C 577.695312 429.222656 573.886719 454.1875 569.167969 482.515625 Z M 71.035156 379.949219 C 83.046875 341.082031 240.730469 190.171875 276.96875 157.160156 C 346.285156 94.128906 385.066406 96.960938 453.714844 167.414062 L 607.953125 325.457031 C 623.050781 340.921875 657.070312 374.390625 634.722656 405.878906 C 619.136719 427.800781 597.179688 413.675781 578.5 394.988281 L 411.941406 227.238281 C 395.890625 211.183594 377.539062 195.167969 354.859375 197.851562 C 331.21875 200.714844 319.300781 221.300781 307.234375 239.667969 C 295.128906 257.902344 187.6875 373.597656 133.003906 407.363281 C 117.152344 417.386719 94.179688 427.058594 79.3125 415.574219 C 68.605469 407.429688 67.523438 391.394531 71.035156 379.949219 Z M 71.035156 379.949219 " fill-opacity="1" fill-rule="nonzero"/><path fill="#979797" d="M 642.058594 503.75 C 656.382812 493.429688 678.625 495.625 690.648438 508.550781 C 697.996094 516.453125 702.257812 528.246094 702.660156 541.78125 C 703.03125 554.1875 700.359375 566.671875 697.773438 578.742188 C 697.464844 580.171875 698.375 581.582031 699.808594 581.890625 C 701.335938 582.1875 702.660156 581.222656 702.957031 579.855469 C 705.605469 567.476562 708.34375 554.675781 707.960938 541.621094 C 707.527344 526.804688 702.753906 513.78125 694.527344 504.9375 C 680.542969 489.90625 655.617188 487.449219 638.960938 499.441406 C 637.777344 500.300781 637.5 501.957031 638.359375 503.144531 C 639.21875 504.332031 640.882812 504.585938 642.058594 503.75 Z M 642.058594 503.75 " fill-opacity="1" fill-rule="nonzero"/><path fill="#979797" d="M 144.207031 319.871094 L 161.457031 302.613281 L 169.09375 310.25 C 170.128906 311.289062 171.804688 311.289062 172.835938 310.25 C 173.875 309.210938 173.875 307.535156 172.835938 306.507812 L 165.199219 298.871094 L 176.695312 287.375 L 184.167969 294.851562 C 185.207031 295.890625 186.882812 295.890625 187.921875 294.851562 C 188.960938 293.8125 188.960938 292.136719 187.921875 291.097656 L 180.445312 283.621094 L 198.789062 265.273438 L 207.726562 274.210938 C 208.765625 275.25 210.441406 275.25 211.480469 274.210938 C 212.519531 273.171875 212.519531 271.496094 211.480469 270.457031 L 202.542969 261.515625 L 214.480469 249.574219 L 221.136719 256.234375 C 222.175781 257.273438 223.851562 257.273438 224.890625 256.234375 C 225.929688 255.195312 225.929688 253.519531 224.890625 252.480469 L 218.230469 245.820312 L 235.027344 229.023438 L 236.816406 230.8125 C 237.855469 231.855469 239.53125 231.855469 240.558594 230.8125 C 241.597656 229.773438 241.597656 228.097656 240.558594 227.058594 L 238.769531 225.265625 L 250.695312 213.324219 L 258.679688 221.3125 C 259.71875 222.351562 261.394531 222.351562 262.433594 221.3125 C 263.472656 220.273438 263.472656 218.597656 262.433594 217.558594 L 254.449219 209.570312 L 271.6875 192.328125 L 282.015625 202.65625 C 283.054688 203.695312 284.726562 203.695312 285.765625 202.65625 C 286.804688 201.617188 286.804688 199.941406 285.765625 198.914062 L 275.441406 188.582031 L 295.140625 168.878906 C 296.179688 167.839844 296.179688 166.164062 295.140625 165.125 C 294.101562 164.085938 292.425781 164.085938 291.398438 165.125 L 271.699219 184.828125 L 266.183594 179.3125 C 265.144531 178.273438 263.472656 178.273438 262.441406 179.3125 C 261.402344 180.351562 261.402344 182.027344 262.441406 183.066406 L 267.945312 188.570312 L 250.707031 205.816406 L 246.742188 201.851562 C 245.703125 200.8125 244.027344 200.8125 243 201.851562 C 241.960938 202.890625 241.960938 204.566406 243 205.605469 L 246.964844 209.570312 L 235.035156 221.503906 L 225.113281 211.574219 C 224.074219 210.535156 222.398438 210.535156 221.371094 211.574219 C 220.332031 212.613281 220.332031 214.289062 221.371094 215.332031 L 231.292969 225.257812 L 214.5 242.054688 L 210.980469 238.535156 C 209.941406 237.496094 208.265625 237.496094 207.226562 238.535156 C 206.1875 239.574219 206.1875 241.25 207.226562 242.277344 L 210.746094 245.800781 L 198.808594 257.742188 L 192.863281 251.792969 C 191.824219 250.753906 190.148438 250.753906 189.109375 251.792969 C 188.070312 252.832031 188.070312 254.507812 189.109375 255.535156 L 195.054688 261.484375 L 176.714844 279.832031 L 169.875 273.003906 C 168.835938 271.964844 167.164062 271.964844 166.132812 273.003906 C 165.09375 274.042969 165.09375 275.71875 166.132812 276.746094 L 172.972656 283.578125 L 161.480469 295.074219 L 153.984375 287.574219 C 152.945312 286.535156 151.269531 286.535156 150.242188 287.574219 C 149.203125 288.613281 149.203125 290.289062 150.242188 291.320312 L 157.738281 298.816406 L 140.457031 316.125 C 139.417969 317.164062 139.417969 318.839844 140.457031 319.871094 C 141.496094 320.910156 143.167969 320.910156 144.207031 319.871094 Z M 144.207031 319.871094 " fill-opacity="1" fill-rule="nonzero"/></svg>