<svg xmlns="http://www.w3.org/2000/svg" xmlns:xlink="http://www.w3.org/1999/xlink" width="500" zoomAndPan="magnify" viewBox="0 0 375 374.999991" height="500" preserveAspectRatio="xMidYMid meet" version="1.0"><defs><g/><clipPath id="49db1de4f5"><path d="M 9 67.324219 L 349 67.324219 L 349 307.324219 L 9 307.324219 Z M 9 67.324219 " clip-rule="nonzero"/></clipPath></defs><g clip-path="url(#49db1de4f5)"><path fill="#a6a6a6" d="M 347.859375 217.28125 C 347.792969 218.90625 347.359375 220.542969 346.960938 222.132812 C 346.761719 222.960938 346.117188 223.554688 345.152344 223.574219 C 344.890625 223.574219 344.640625 223.507812 344.40625 223.390625 C 343.960938 224.566406 343.496094 225.722656 342.964844 226.851562 C 343.679688 227.246094 343.695312 227.859375 343.363281 228.355469 C 341.953125 230.523438 340.558594 232.726562 339 234.792969 C 337.574219 236.699219 335.371094 237.441406 333.128906 237.742188 C 328.917969 238.304688 324.6875 238.832031 320.460938 239.148438 C 313.859375 239.644531 307.242188 240.007812 300.640625 240.355469 C 296.746094 240.554688 292.847656 240.570312 288.933594 240.71875 C 287.90625 240.753906 286.8125 240.554688 285.914062 241.167969 C 286.246094 249.839844 286.5625 258.398438 286.894531 267.136719 C 287.789062 267.234375 288.585938 267.367188 289.382812 267.386719 C 293.277344 267.417969 297.191406 267.433594 301.089844 267.433594 C 302.550781 267.433594 303.910156 267.617188 305.101562 268.558594 C 306.710938 269.851562 307.542969 271.457031 307.042969 273.527344 C 306.710938 274.898438 306.347656 276.273438 305.832031 277.597656 C 303.363281 283.96875 300.824219 290.324219 298.304688 296.679688 C 298.003906 297.441406 297.625 298.1875 297.308594 298.949219 C 295.515625 303.21875 292 305.140625 287.671875 305.71875 C 284.523438 306.148438 281.320312 306.296875 278.152344 306.613281 C 270.839844 307.324219 263.507812 307.09375 256.179688 307.226562 C 247.886719 307.375 239.628906 306.8125 231.371094 306.363281 C 228.683594 306.214844 225.964844 305.71875 223.34375 305.074219 C 220.308594 304.3125 219.410156 302.390625 220.375 299.429688 C 220.65625 298.535156 221.039062 297.65625 221.453125 296.8125 C 225.796875 288.15625 230.492188 279.714844 236.378906 271.96875 C 237.789062 270.132812 239.378906 269.023438 241.617188 268.773438 C 243.476562 268.578125 245.332031 268.378906 247.355469 268.179688 C 247.820312 263.910156 247.222656 259.671875 247.273438 255.449219 C 247.324219 251.214844 247.390625 246.960938 247.457031 242.492188 C 246.875 242.359375 246.230469 242.078125 245.582031 242.09375 C 241.203125 242.144531 236.824219 242.242188 232.464844 242.324219 C 224.421875 242.457031 216.378906 242.671875 208.351562 242.707031 C 196.160156 242.757812 183.988281 242.773438 171.796875 242.640625 C 157.253906 242.492188 142.710938 242.226562 128.164062 241.878906 C 119.425781 241.664062 110.683594 241.214844 101.929688 240.867188 C 101 240.835938 100.089844 240.867188 98.945312 240.867188 C 98.460938 245.289062 99.472656 249.460938 99.457031 253.664062 C 99.441406 257.769531 100.15625 261.839844 100.203125 266.109375 C 101.5625 266.175781 102.609375 266.242188 103.636719 266.257812 C 107.535156 266.292969 111.433594 266.277344 115.28125 267.105469 C 116.789062 267.433594 118.28125 267.734375 119.542969 268.710938 C 121.714844 270.398438 122.226562 272.515625 121 274.949219 C 120.6875 275.578125 120.289062 276.175781 119.890625 276.753906 C 114.964844 283.835938 110.003906 290.871094 105.144531 297.988281 C 103.851562 299.890625 102.046875 300.886719 99.972656 301.433594 C 98.496094 301.828125 96.953125 302.027344 95.429688 302.144531 C 85.992188 302.855469 76.539062 303.054688 67.070312 302.789062 C 61.859375 302.640625 56.652344 302.558594 51.480469 302.144531 C 47.484375 301.828125 43.519531 301.132812 39.554688 300.472656 C 38.179688 300.238281 36.820312 299.710938 35.558594 299.097656 C 34.199219 298.453125 33.238281 297.308594 33.484375 295.703125 C 33.703125 294.398438 32.441406 293.171875 33.304688 291.949219 C 33.984375 290.988281 34.84375 290.175781 35.65625 289.316406 C 40.515625 284.152344 45.375 279.003906 50.234375 273.839844 C 50.800781 273.246094 51.378906 272.648438 51.945312 272.035156 C 54.363281 269.355469 57.035156 267.105469 60.816406 266.773438 C 60.933594 266.308594 61.097656 265.976562 61.097656 265.628906 C 61.113281 257.253906 61.097656 248.863281 61.082031 240.488281 C 61.082031 240.273438 60.914062 240.058594 60.734375 239.675781 C 60.285156 239.59375 59.738281 239.414062 59.175781 239.378906 C 57.996094 239.296875 56.820312 239.28125 55.625 239.261719 C 46.636719 239.164062 37.679688 238.503906 28.710938 237.824219 C 28.476562 237.808594 28.226562 237.839844 27.996094 237.773438 C 24.945312 236.878906 22.027344 235.65625 19.191406 234.28125 C 17.664062 233.535156 17.015625 231.847656 16.46875 230.257812 C 15.324219 226.882812 14.796875 223.390625 14.3125 219.882812 C 12.722656 209.023438 11.976562 198.082031 11.246094 187.125 C 10.597656 177.707031 10.050781 168.289062 9.886719 158.839844 C 9.6875 148.210938 9.519531 137.601562 9.320312 126.976562 C 9.125 116.464844 9.703125 105.972656 10.152344 95.480469 C 10.300781 91.835938 10.433594 88.144531 11.445312 84.605469 C 11.859375 83.148438 12.589844 81.789062 13.167969 80.382812 C 15.890625 78.164062 18.226562 75.5 21.429688 73.863281 C 24.097656 72.488281 26.835938 71.628906 29.820312 71.3125 C 39.472656 70.304688 49.15625 70.089844 58.859375 69.9375 C 74.699219 69.707031 90.535156 69.195312 106.375 68.832031 C 112.160156 68.699219 117.964844 68.664062 123.753906 68.597656 C 154.847656 68.25 185.960938 67.835938 217.058594 67.554688 C 238.933594 67.375 260.824219 67.292969 282.699219 67.339844 C 292.632812 67.355469 302.566406 67.753906 312.5 68.019531 C 315.101562 68.085938 317.707031 68.183594 320.277344 68.550781 C 322.367188 68.847656 324.390625 69.527344 326.429688 70.121094 C 326.84375 70.238281 327.210938 70.617188 327.558594 70.933594 C 327.824219 71.179688 327.875 71.660156 327.722656 72.042969 C 328.785156 72.523438 329.847656 73.035156 330.890625 73.597656 C 330.941406 73.398438 331.007812 73.199219 331.089844 73.035156 C 331.207031 72.804688 331.6875 72.605469 331.984375 72.636719 C 332.566406 72.6875 333.164062 72.820312 333.695312 73.050781 C 337.128906 74.574219 339.5 77.089844 340.476562 80.746094 C 341.058594 82.914062 341.554688 85.101562 341.871094 87.320312 C 342.515625 91.871094 343.082031 96.4375 343.5625 101.007812 C 344.257812 107.695312 344.839844 114.398438 345.4375 121.085938 C 345.734375 124.492188 346 127.902344 346.199219 131.3125 C 346.546875 137.320312 346.878906 143.328125 347.109375 149.339844 C 347.507812 159.601562 347.839844 169.84375 348.1875 180.109375 C 348.621094 192.503906 348.40625 204.902344 347.859375 217.28125 Z M 347.859375 217.28125 " fill-opacity="1" fill-rule="nonzero"/></g><path fill="#ffffff" d="M 344.425781 223.390625 C 343.976562 224.566406 343.511719 225.722656 342.980469 226.851562 C 340.890625 227.261719 339.632812 228.917969 338.253906 230.324219 C 337.210938 231.402344 336.082031 232.246094 334.738281 232.710938 C 335.765625 227.875 334.839844 222.050781 334.390625 217.132812 C 334.507812 217.167969 334.640625 217.152344 334.789062 217.117188 C 335.136719 217.035156 335.46875 216.523438 335.636719 216.140625 C 335.816406 215.726562 335.816406 215.214844 335.832031 214.75 C 336.015625 211.109375 336.382812 207.449219 336.332031 203.808594 C 336.214844 193.546875 335.984375 183.300781 335.699219 173.039062 C 335.503906 165.742188 335.152344 158.425781 334.804688 151.125 C 334.605469 146.773438 334.359375 142.417969 334.042969 138.066406 C 333.480469 130.304688 332.863281 122.558594 332.203125 114.8125 C 331.738281 109.414062 331.207031 104.019531 330.578125 98.640625 C 330.292969 96.191406 329.730469 93.757812 329.183594 91.355469 C 328.785156 89.621094 328.105469 87.980469 326.828125 86.671875 C 325.171875 85 323.347656 83.511719 320.824219 81.972656 C 320.890625 82.535156 320.890625 82.914062 320.90625 83.164062 C 317.757812 81.277344 314.488281 79.902344 311.007812 79.273438 C 311.339844 79.09375 311.703125 78.878906 312.050781 78.644531 C 310.707031 78.28125 310.0625 77.96875 309.429688 77.96875 C 307.058594 77.917969 304.707031 77.984375 302.332031 77.984375 C 265.929688 77.785156 229.511719 77.253906 193.078125 78.363281 C 181.25 78.726562 169.425781 78.8125 157.601562 78.976562 C 135.496094 79.308594 113.371094 79.605469 91.265625 79.921875 C 86.65625 79.988281 82.042969 80.035156 77.433594 80.152344 C 64.664062 80.484375 51.910156 80.863281 39.140625 81.160156 C 35.359375 81.246094 31.578125 81.078125 27.78125 81.046875 C 26.886719 81.046875 25.972656 81.195312 24.710938 81.292969 C 25.277344 81.789062 25.507812 82.121094 25.773438 82.171875 C 25.839844 82.1875 25.90625 82.203125 25.972656 82.203125 C 22.988281 82.304688 19.804688 81.492188 16.984375 82.320312 C 17.132812 81.359375 17.28125 80.382812 17.433594 79.40625 C 19.4375 78.480469 21.347656 77.519531 23.320312 76.742188 C 24.628906 76.230469 26.007812 75.734375 27.382812 75.617188 C 31.378906 75.269531 35.410156 74.953125 39.421875 74.90625 C 55.972656 74.707031 72.542969 74.722656 89.09375 74.257812 C 102.210938 73.894531 115.34375 73.84375 128.464844 73.695312 C 150.472656 73.449219 172.460938 73.101562 194.453125 73 C 228.035156 72.835938 261.636719 72.851562 295.21875 72.804688 C 299 72.804688 302.78125 72.96875 306.5625 73.066406 C 310.941406 73.183594 315.300781 73.382812 319.679688 73.414062 C 321.6875 73.433594 323.695312 73.199219 325.683594 73.019531 C 326.25 72.96875 326.8125 72.703125 327.34375 72.472656 C 327.507812 72.390625 327.640625 72.222656 327.707031 72.023438 C 328.769531 72.503906 329.832031 73.019531 330.875 73.582031 C 330.808594 73.84375 330.808594 74.128906 330.910156 74.292969 C 331.324219 74.988281 331.855469 75.648438 332.46875 76.179688 C 334.558594 77.949219 335.71875 80.167969 336.082031 82.867188 C 336.429688 85.433594 336.894531 87.996094 337.160156 90.5625 C 337.742188 96.191406 338.273438 101.835938 338.753906 107.460938 C 339.398438 115.109375 340.078125 122.738281 340.558594 130.386719 C 341.125 139.207031 341.605469 148.046875 341.921875 156.902344 C 342.316406 168.457031 342.566406 180.023438 342.765625 191.578125 C 342.898438 199.722656 342.816406 207.863281 342.914062 216.007812 C 342.933594 217.996094 343.230469 219.996094 343.496094 221.984375 C 343.628906 222.679688 343.976562 223.140625 344.425781 223.390625 Z M 344.425781 223.390625 " fill-opacity="1" fill-rule="nonzero"/><path fill="#ffffff" d="M 334.738281 232.710938 C 334.109375 232.925781 333.429688 233.058594 332.699219 233.074219 C 331.058594 233.121094 329.414062 233.488281 327.773438 233.585938 C 321.753906 233.917969 315.734375 234.230469 309.714844 234.496094 C 300.742188 234.894531 291.753906 235.308594 282.78125 235.640625 C 275.683594 235.902344 268.601562 236.101562 261.503906 236.25 C 246.246094 236.566406 231.003906 236.980469 215.746094 237.09375 C 183.339844 237.34375 150.933594 237.078125 118.546875 235.902344 C 107.800781 235.507812 97.035156 235.257812 86.273438 234.925781 C 85.097656 234.894531 83.902344 234.828125 82.722656 234.792969 C 71.976562 234.414062 61.214844 233.949219 50.46875 233.6875 C 43.253906 233.503906 36.039062 233.503906 28.824219 233.6875 C 26.519531 233.75 24.710938 233.058594 22.886719 231.914062 C 21.925781 231.320312 21.3125 230.507812 21.03125 229.433594 C 20.863281 228.753906 20.683594 228.058594 20.535156 227.378906 C 19.074219 220.195312 18.558594 212.898438 17.878906 205.613281 C 17.265625 199.042969 16.800781 192.4375 16.503906 185.835938 C 15.90625 172.742188 15.226562 159.667969 15.011719 146.558594 C 14.746094 131.113281 14.628906 115.640625 15.457031 100.195312 C 15.773438 94.285156 16.15625 88.410156 17 82.320312 C 19.820312 81.507812 23.003906 82.304688 25.988281 82.203125 C 26.734375 82.351562 27.480469 82.46875 28.246094 82.484375 C 35.808594 82.734375 43.371094 82.980469 50.933594 83.113281 C 53.769531 83.164062 56.605469 82.898438 59.441406 82.867188 C 76.238281 82.585938 93.023438 82.304688 109.824219 82.089844 C 129.09375 81.839844 148.382812 81.675781 167.652344 81.441406 C 183.257812 81.261719 198.863281 80.964844 214.488281 80.8125 C 227.738281 80.679688 240.972656 80.648438 254.222656 80.648438 C 268.652344 80.664062 283.078125 80.796875 297.507812 80.832031 C 300.460938 80.832031 303.410156 80.679688 306.363281 80.464844 C 307.804688 80.367188 309.28125 80.203125 311.039062 79.257812 C 314.523438 79.902344 317.808594 81.261719 320.941406 83.148438 C 320.957031 83.3125 320.992188 83.429688 321.058594 83.511719 C 321.421875 83.957031 321.871094 84.371094 322.351562 84.703125 C 325.453125 86.886719 326.828125 89.917969 327.375 93.625 C 328.785156 102.960938 329.316406 112.378906 330.0625 121.78125 C 330.476562 126.945312 330.726562 132.125 330.992188 137.304688 C 331.421875 145.183594 331.886719 153.078125 332.183594 160.972656 C 332.734375 175.589844 332.929688 190.203125 332.832031 204.820312 C 332.816406 206.9375 332.882812 209.074219 333.015625 211.175781 C 333.128906 212.8125 333.394531 214.453125 333.644531 216.074219 C 333.710938 216.554688 333.941406 217.019531 334.390625 217.117188 C 334.855469 222.050781 335.785156 227.859375 334.738281 232.710938 Z M 334.738281 232.710938 " fill-opacity="1" fill-rule="nonzero"/><path fill="#cccccc" d="M 301.238281 275.828125 C 298.71875 281.933594 296.164062 288.007812 293.625 294.097656 C 292.78125 296.152344 291.96875 298.222656 291.121094 300.289062 C 273.226562 301.945312 255.433594 302.671875 237.589844 301.996094 C 233.476562 301.84375 229.378906 301.628906 225.019531 301.449219 C 229.777344 291.105469 235.464844 281.621094 241.335938 272.003906 C 243.195312 272.003906 245.167969 272.003906 247.257812 272.003906 C 247.835938 273.328125 247.472656 274.75 247.621094 276.140625 C 247.820312 278.011719 248.019531 279.882812 248.300781 281.734375 C 248.386719 282.28125 248.734375 282.828125 249.082031 283.292969 C 249.496094 283.871094 250.34375 283.96875 250.921875 283.65625 C 251.71875 284.617188 252.714844 285.460938 253.824219 286.105469 C 253.875 286.351562 254.023438 286.585938 254.1875 286.800781 C 255.199219 288.191406 256.726562 288.886719 258.269531 289.464844 C 263.726562 291.46875 269.164062 291.019531 274.554688 289.25 C 275.914062 288.804688 277.074219 287.957031 277.871094 286.71875 C 278.203125 286.203125 278.351562 285.558594 277.839844 285.113281 C 277.523438 284.847656 276.941406 284.632812 276.578125 284.746094 C 276.394531 284.796875 276.230469 284.863281 276.046875 284.914062 L 277.160156 241.28125 C 277.753906 241.265625 278.335938 241.25 278.933594 241.234375 C 279.730469 241.214844 280.523438 241.332031 281.253906 241.382812 C 282 242.640625 281.753906 243.847656 281.753906 244.992188 C 281.800781 255.253906 281.800781 265.515625 281.820312 275.777344 C 281.820312 276.835938 281.785156 277.910156 281.902344 278.953125 C 282.019531 280.046875 282.433594 281.058594 283.609375 281.402344 C 284.457031 281.652344 285.648438 280.675781 286.046875 279.269531 C 286.363281 278.144531 286.527344 276.96875 286.59375 275.792969 C 286.695312 274.386719 286.613281 272.980469 286.613281 271.753906 C 286.992188 271.421875 287.160156 271.160156 287.339844 271.140625 C 290.078125 270.960938 299.164062 271.621094 302.199219 272.203125 C 302.449219 273.542969 301.71875 274.667969 301.238281 275.828125 Z M 113.570312 270.347656 C 109.804688 270.199219 106.023438 269.96875 102.261719 269.785156 C 101.695312 269.75 101.132812 269.835938 100.386719 269.867188 C 100.320312 270.710938 100.222656 271.390625 100.203125 272.070312 C 100.15625 274.070312 100.15625 276.074219 100.089844 278.078125 C 100.054688 278.773438 99.988281 279.535156 99.65625 280.113281 C 99.425781 280.527344 98.726562 280.925781 98.246094 280.90625 C 97.765625 280.890625 97.167969 280.445312 96.886719 280.015625 C 96.589844 279.550781 96.554688 278.886719 96.523438 278.308594 C 96.273438 273.957031 95.941406 269.601562 95.84375 265.25 C 95.675781 258.296875 95.675781 251.328125 95.578125 244.378906 C 95.5625 243.21875 95.792969 242.011719 95.164062 240.933594 C 94.929688 240.835938 94.730469 240.671875 94.515625 240.652344 C 93.238281 240.605469 91.960938 240.539062 90.667969 240.488281 L 91.050781 283.390625 C 91.214844 283.339844 91.382812 283.273438 91.53125 283.226562 C 91.894531 283.109375 92.542969 283.308594 92.773438 283.605469 C 93.1875 284.101562 92.941406 284.730469 92.507812 285.179688 C 92.195312 285.507812 91.8125 285.824219 91.429688 286.070312 C 90.933594 286.386719 90.417969 286.683594 89.871094 286.914062 C 84.035156 289.398438 78.082031 289.929688 71.945312 288.125 C 70.550781 287.710938 69.355469 287.066406 68.410156 286.039062 C 66.488281 285.441406 64.796875 284.203125 64.148438 282.429688 C 64.101562 282.429688 64.066406 282.445312 64.015625 282.445312 C 63.203125 282.546875 62.574219 282.183594 62.359375 281.4375 C 62.078125 280.542969 61.925781 279.617188 61.84375 278.691406 C 61.679688 276.933594 61.613281 275.164062 61.445312 273.410156 C 61.398438 272.863281 61.113281 272.351562 60.933594 271.820312 C 59.375 271.96875 58.328125 272.730469 57.332031 273.574219 C 56.355469 274.417969 55.394531 275.3125 54.464844 276.207031 C 48.957031 281.554688 43.46875 286.914062 37.980469 292.277344 C 37.648438 292.609375 37.332031 292.957031 37.050781 293.339844 C 36.753906 293.734375 36.953125 294.746094 37.398438 294.910156 C 38.378906 295.292969 39.371094 295.65625 40.402344 295.871094 C 41.429688 296.085938 42.507812 296.085938 43.570312 296.21875 C 48.128906 296.78125 52.707031 297.375 57.316406 297.359375 C 67.484375 297.359375 77.632812 297.375 87.800781 297.34375 C 90.984375 297.328125 94.167969 297.144531 97.367188 297.011719 C 98.179688 296.980469 98.976562 296.832031 99.625 296.746094 C 105.378906 288.4375 111.015625 280.3125 116.671875 272.136719 C 116.09375 270.8125 114.980469 270.414062 113.570312 270.347656 Z M 113.570312 270.347656 " fill-opacity="1" fill-rule="nonzero"/><path fill="#cccccc" d="M 250.957031 283.640625 C 251.1875 283.523438 251.371094 283.324219 251.484375 283.09375 C 251.734375 282.578125 251.917969 281.984375 251.949219 281.421875 C 252.050781 279.78125 252.167969 278.128906 252.117188 276.472656 C 251.851562 267.269531 251.570312 258.082031 251.253906 248.898438 C 251.1875 246.777344 250.90625 244.675781 250.722656 242.410156 C 251.285156 242.257812 251.816406 242.011719 252.363281 241.996094 C 260.640625 241.730469 268.898438 241.5 277.175781 241.265625 L 276.0625 284.898438 C 274.902344 285.277344 273.757812 285.742188 272.613281 286.171875 C 269.03125 287.511719 265.382812 288.140625 261.535156 287.546875 C 259.015625 287.148438 256.808594 286.1875 254.585938 284.8125 C 253.890625 285.261719 253.757812 285.691406 253.839844 286.089844 C 252.746094 285.441406 251.769531 284.597656 250.957031 283.640625 Z M 68.429688 286.070312 C 68.179688 285.789062 67.949219 285.507812 67.730469 285.179688 C 67.433594 284.714844 67.5 284.300781 67.996094 283.988281 C 68.195312 284.019531 68.511719 283.96875 68.644531 284.101562 C 71 286.238281 73.917969 286.632812 76.886719 286.71875 C 80.320312 286.816406 83.6875 286.269531 86.902344 284.964844 C 88.261719 284.417969 89.65625 283.886719 91.050781 283.441406 L 90.667969 240.539062 C 86.523438 240.355469 82.375 240.175781 78.230469 240.058594 C 73.984375 239.925781 69.722656 239.925781 65.476562 239.875 C 65.359375 239.875 65.226562 239.894531 65.128906 239.941406 C 65.027344 239.992188 64.960938 240.109375 64.730469 240.371094 C 64.730469 241.449219 64.679688 242.722656 64.730469 243.996094 C 64.945312 248.832031 65.179688 253.648438 65.394531 258.480469 C 65.476562 260.367188 65.578125 262.253906 65.578125 264.140625 C 65.59375 269.320312 65.578125 274.519531 65.542969 279.699219 C 65.542969 280.277344 65.425781 280.875 65.277344 281.4375 C 65.128906 282.015625 64.746094 282.382812 64.167969 282.496094 C 64.796875 284.21875 66.503906 285.476562 68.429688 286.070312 Z M 68.429688 286.070312 " fill-opacity="1" fill-rule="nonzero"/><g fill="#a6a6a6" fill-opacity="1"><g transform="translate(25.747414, 192.468416)"><g><path d="M 39.90625 -57.53125 C 41.269531 -57.53125 42.609375 -56.875 43.921875 -55.5625 C 45.234375 -54.25 45.890625 -53.171875 45.890625 -52.328125 C 45.890625 -51.484375 45.738281 -51.0625 45.4375 -51.0625 C 45.144531 -51.0625 44.394531 -51.304688 43.1875 -51.796875 C 41.988281 -52.285156 40.84375 -52.53125 39.75 -52.53125 C 37.613281 -52.53125 34.945312 -51.421875 31.75 -49.203125 C 28.5625 -46.992188 25.503906 -44.222656 22.578125 -40.890625 C 19.648438 -37.554688 17.132812 -33.691406 15.03125 -29.296875 C 12.9375 -24.898438 11.890625 -20.976562 11.890625 -17.53125 C 11.890625 -14.09375 12.9375 -11.523438 15.03125 -9.828125 C 17.132812 -8.140625 19.71875 -7.296875 22.78125 -7.296875 C 25.84375 -7.296875 28.863281 -7.910156 31.84375 -9.140625 C 34.820312 -10.367188 37.238281 -11.582031 39.09375 -12.78125 C 40.945312 -13.988281 42.066406 -14.59375 42.453125 -14.59375 C 42.835938 -14.59375 43.140625 -14.46875 43.359375 -14.21875 C 43.578125 -13.96875 43.6875 -13.707031 43.6875 -13.4375 C 43.6875 -12.507812 42.535156 -11.144531 40.234375 -9.34375 C 37.941406 -7.539062 35.046875 -5.875 31.546875 -4.34375 C 28.054688 -2.8125 24.941406 -2.046875 22.203125 -2.046875 C 18.160156 -2.046875 14.554688 -3.492188 11.390625 -6.390625 C 8.222656 -9.285156 6.640625 -12.710938 6.640625 -16.671875 C 6.640625 -20.640625 7.675781 -25.007812 9.75 -29.78125 C 11.820312 -34.5625 14.414062 -38.988281 17.53125 -43.0625 C 20.644531 -47.132812 24.238281 -50.5625 28.3125 -53.34375 C 32.382812 -56.132812 36.25 -57.53125 39.90625 -57.53125 Z M 39.90625 -57.53125 "/></g></g></g><g fill="#a6a6a6" fill-opacity="1"><g transform="translate(74.010334, 192.468416)"><g><path d="M 22.53125 -41.140625 C 25.375 -41.140625 27.570312 -39.960938 29.125 -37.609375 C 30.6875 -35.265625 31.46875 -33.148438 31.46875 -31.265625 C 31.46875 -29.378906 30.867188 -27.617188 29.671875 -25.984375 C 30.160156 -25.429688 30.40625 -24.71875 30.40625 -23.84375 C 30.40625 -20.351562 30.117188 -17.050781 29.546875 -13.9375 C 28.972656 -10.820312 28.601562 -8.332031 28.4375 -6.46875 C 28.269531 -4.613281 28.09375 -3.300781 27.90625 -2.53125 C 27.71875 -1.769531 27.375 -1.390625 26.875 -1.390625 C 25.945312 -1.390625 25.347656 -2.273438 25.078125 -4.046875 C 24.804688 -5.828125 24.671875 -8.578125 24.671875 -12.296875 C 22.972656 -9.285156 20.828125 -6.710938 18.234375 -4.578125 C 15.640625 -2.453125 13.097656 -1.390625 10.609375 -1.390625 C 8.128906 -1.390625 5.738281 -2.34375 3.4375 -4.25 C 1.144531 -6.164062 0 -8.273438 0 -10.578125 C 0 -14.066406 1.210938 -18.226562 3.640625 -23.0625 C 6.078125 -27.90625 9.125 -32.128906 12.78125 -35.734375 C 16.445312 -39.335938 19.695312 -41.140625 22.53125 -41.140625 Z M 27.203125 -26.96875 C 27.148438 -27.34375 27.125 -28.253906 27.125 -29.703125 C 27.125 -31.148438 26.804688 -32.613281 26.171875 -34.09375 C 25.546875 -35.570312 24.609375 -36.3125 23.359375 -36.3125 C 21.285156 -36.3125 18.785156 -34.738281 15.859375 -31.59375 C 12.929688 -28.445312 10.398438 -24.8125 8.265625 -20.6875 C 6.140625 -16.5625 5.078125 -13.160156 5.078125 -10.484375 C 5.078125 -9.285156 5.632812 -8.273438 6.75 -7.453125 C 7.875 -6.640625 9.066406 -6.234375 10.328125 -6.234375 C 13.171875 -6.234375 16.066406 -8.0625 19.015625 -11.71875 C 21.960938 -15.375 24.203125 -19.878906 25.734375 -25.234375 C 25.898438 -26.171875 26.390625 -26.75 27.203125 -26.96875 Z M 27.203125 -26.96875 "/></g></g></g><g fill="#a6a6a6" fill-opacity="1"><g transform="translate(110.637699, 192.468416)"><g><path d="M 7.953125 -33.1875 L 7.78125 -37.609375 C 7.78125 -39.472656 7.914062 -40.523438 8.1875 -40.765625 C 8.46875 -41.015625 8.742188 -41.140625 9.015625 -41.140625 C 9.773438 -41.140625 10.535156 -40.566406 11.296875 -39.421875 C 12.066406 -38.273438 12.453125 -37.046875 12.453125 -35.734375 C 12.453125 -32.234375 12.15625 -28.734375 11.5625 -25.234375 C 13.195312 -28.679688 14.941406 -31.644531 16.796875 -34.125 C 18.660156 -36.613281 20.382812 -38.347656 21.96875 -39.328125 C 23.550781 -40.316406 24.96875 -40.8125 26.21875 -40.8125 C 28.625 -40.8125 29.828125 -40.320312 29.828125 -39.34375 C 29.828125 -38.625 28.984375 -37.910156 27.296875 -37.203125 C 24.066406 -35.953125 21.46875 -34 19.5 -31.34375 C 17.53125 -28.695312 15.585938 -25.28125 13.671875 -21.09375 C 11.765625 -16.914062 10.304688 -13.1875 9.296875 -9.90625 C 8.285156 -6.632812 7.535156 -4.34375 7.046875 -3.03125 C 6.554688 -1.71875 5.925781 -1.0625 5.15625 -1.0625 C 4.5625 -1.0625 4.046875 -1.441406 3.609375 -2.203125 C 3.171875 -2.972656 2.953125 -3.726562 2.953125 -4.46875 C 2.953125 -5.207031 3.113281 -6.175781 3.4375 -7.375 C 4.96875 -12.40625 6.101562 -16.707031 6.84375 -20.28125 C 7.582031 -23.863281 7.953125 -28.164062 7.953125 -33.1875 Z M 7.953125 -33.1875 "/></g></g></g><g fill="#a6a6a6" fill-opacity="1"><g transform="translate(136.366986, 192.468416)"><g><path d="M 24.75 -41.140625 C 26.5 -41.140625 28.097656 -40.222656 29.546875 -38.390625 C 30.992188 -36.566406 31.71875 -35.148438 31.71875 -34.140625 C 31.71875 -33.128906 31.390625 -32.625 30.734375 -32.625 C 30.078125 -32.625 29.117188 -33.222656 27.859375 -34.421875 C 26.609375 -35.617188 25.296875 -36.21875 23.921875 -36.21875 C 22.554688 -36.21875 20.398438 -35.273438 17.453125 -33.390625 C 14.503906 -31.503906 13.03125 -29.632812 13.03125 -27.78125 C 13.03125 -26.46875 14.859375 -24.640625 18.515625 -22.296875 C 20.046875 -21.304688 21.578125 -20.238281 23.109375 -19.09375 C 26.773438 -16.363281 28.609375 -13.6875 28.609375 -11.0625 C 28.609375 -8.4375 27.210938 -6.164062 24.421875 -4.25 C 21.640625 -2.34375 18.390625 -1.390625 14.671875 -1.390625 C 10.953125 -1.390625 7.628906 -2.316406 4.703125 -4.171875 C 1.785156 -6.035156 0.328125 -7.703125 0.328125 -9.171875 C 0.328125 -9.671875 0.476562 -10.082031 0.78125 -10.40625 C 1.082031 -10.738281 1.4375 -10.90625 1.84375 -10.90625 C 2.25 -10.90625 2.945312 -10.492188 3.9375 -9.671875 C 7.050781 -7.265625 10.273438 -6.0625 13.609375 -6.0625 C 20.054688 -6.0625 23.28125 -7.753906 23.28125 -11.140625 C 23.28125 -12.617188 22.472656 -14.082031 20.859375 -15.53125 C 19.242188 -16.976562 17.476562 -18.21875 15.5625 -19.25 C 13.65625 -20.289062 11.894531 -21.601562 10.28125 -23.1875 C 8.675781 -24.769531 7.875 -26.382812 7.875 -28.03125 C 7.875 -30.875 9.9375 -33.769531 14.0625 -36.71875 C 18.1875 -39.664062 21.75 -41.140625 24.75 -41.140625 Z M 24.75 -41.140625 "/></g></g></g><g fill="#0eafff" fill-opacity="1"><g transform="translate(162.888185, 192.468416)"><g><path d="M 11.96875 0.484375 C 10.757812 0.484375 9.390625 -0.289062 7.859375 -1.84375 C 6.335938 -3.394531 5.578125 -4.675781 5.578125 -5.6875 C 5.578125 -6.707031 5.941406 -7.679688 6.671875 -8.609375 C 7.410156 -9.535156 8.175781 -10 8.96875 -10 C 9.757812 -10 10.726562 -8.769531 11.875 -6.3125 C 13.03125 -3.851562 13.609375 -1.992188 13.609375 -0.734375 C 13.609375 -0.515625 13.414062 -0.257812 13.03125 0.03125 C 12.644531 0.332031 12.289062 0.484375 11.96875 0.484375 Z M 11.96875 0.484375 "/></g></g></g><g fill="#0eafff" fill-opacity="1"><g transform="translate(182.308074, 192.468416)"><g><path d="M 4.421875 -38.59375 C 4.421875 -40.289062 8.984375 -41.140625 18.109375 -41.140625 C 22.753906 -41.140625 26.003906 -40.539062 27.859375 -39.34375 C 28.734375 -38.789062 29.5 -37.992188 30.15625 -36.953125 C 30.8125 -35.921875 31.140625 -34.96875 31.140625 -34.09375 C 31.140625 -32.175781 29.828125 -29.820312 27.203125 -27.03125 C 24.585938 -24.25 21.722656 -21.738281 18.609375 -19.5 C 10.242188 -13.382812 6.0625 -9.613281 6.0625 -8.1875 C 6.0625 -6.882812 7.070312 -6.234375 9.09375 -6.234375 C 12.539062 -6.234375 16.691406 -6.503906 21.546875 -7.046875 C 26.410156 -7.597656 29.222656 -7.875 29.984375 -7.875 C 30.753906 -7.875 31.316406 -7.800781 31.671875 -7.65625 C 32.023438 -7.519531 32.203125 -7.207031 32.203125 -6.71875 C 32.203125 -5.351562 29.289062 -4.125 23.46875 -3.03125 C 17.65625 -1.9375 12.8125 -1.390625 8.9375 -1.390625 C 6.695312 -1.390625 4.710938 -2.125 2.984375 -3.59375 C 1.265625 -5.070312 0.40625 -6.519531 0.40625 -7.9375 C 0.40625 -9.363281 1.769531 -11.390625 4.5 -14.015625 C 7.238281 -16.640625 10.242188 -19.164062 13.515625 -21.59375 C 16.796875 -24.019531 19.800781 -26.460938 22.53125 -28.921875 C 25.269531 -31.390625 26.640625 -33.164062 26.640625 -34.25 C 26.640625 -35.5625 23.46875 -36.21875 17.125 -36.21875 C 15.925781 -36.21875 14.273438 -36.066406 12.171875 -35.765625 C 10.066406 -35.472656 8.628906 -35.328125 7.859375 -35.328125 C 7.097656 -35.328125 6.332031 -35.691406 5.5625 -36.421875 C 4.800781 -37.160156 4.421875 -37.882812 4.421875 -38.59375 Z M 4.421875 -38.59375 "/></g></g></g><g fill="#0eafff" fill-opacity="1"><g transform="translate(216.55917, 192.468416)"><g><path d="M 14.671875 -53.515625 C 14.671875 -54.441406 14.984375 -55.257812 15.609375 -55.96875 C 16.234375 -56.6875 16.925781 -57.046875 17.6875 -57.046875 C 18.457031 -57.046875 19.332031 -56.113281 20.3125 -54.25 C 21.300781 -52.394531 21.796875 -51.054688 21.796875 -50.234375 C 21.796875 -48.867188 21.332031 -48.1875 20.40625 -48.1875 C 19.257812 -48.1875 18.015625 -48.84375 16.671875 -50.15625 C 15.335938 -51.46875 14.671875 -52.585938 14.671875 -53.515625 Z M 11.140625 -37.484375 C 11.523438 -38.828125 11.894531 -39.769531 12.25 -40.3125 C 12.601562 -40.863281 13.023438 -41.140625 13.515625 -41.140625 C 14.015625 -41.140625 14.5625 -40.769531 15.15625 -40.03125 C 15.757812 -39.289062 16.0625 -38.566406 16.0625 -37.859375 C 16.0625 -34.203125 13.273438 -23.578125 7.703125 -5.984375 C 6.660156 -2.921875 5.59375 -1.390625 4.5 -1.390625 C 3.957031 -1.390625 3.492188 -1.617188 3.109375 -2.078125 C 2.734375 -2.546875 2.546875 -3.117188 2.546875 -3.796875 C 2.546875 -4.484375 2.800781 -5.742188 3.3125 -7.578125 C 3.832031 -9.410156 4.503906 -11.734375 5.328125 -14.546875 C 6.148438 -17.359375 6.789062 -19.679688 7.25 -21.515625 C 7.71875 -23.347656 8.238281 -25.476562 8.8125 -27.90625 C 9.382812 -30.332031 9.820312 -32.203125 10.125 -33.515625 C 10.425781 -34.828125 10.765625 -36.148438 11.140625 -37.484375 Z M 11.140625 -37.484375 "/></g></g></g><g fill="#0eafff" fill-opacity="1"><g transform="translate(235.077704, 192.468416)"><g><path d="M 54.65625 -41.140625 C 56.082031 -41.140625 57.394531 -40.15625 58.59375 -38.1875 C 59.800781 -36.21875 60.40625 -33.195312 60.40625 -29.125 C 60.40625 -25.0625 59.242188 -19.421875 56.921875 -12.203125 C 54.597656 -4.992188 52.476562 -1.390625 50.5625 -1.390625 C 49.6875 -1.390625 49.25 -1.9375 49.25 -3.03125 C 49.25 -4.125 49.78125 -6.050781 50.84375 -8.8125 C 51.914062 -11.570312 53 -14.847656 54.09375 -18.640625 C 55.1875 -22.441406 55.734375 -26.226562 55.734375 -30 C 55.734375 -33.769531 55.019531 -35.65625 53.59375 -35.65625 C 52.78125 -35.65625 52.015625 -35.351562 51.296875 -34.75 C 50.585938 -34.144531 50.015625 -33.625 49.578125 -33.1875 C 49.140625 -32.75 48.609375 -32.09375 47.984375 -31.21875 C 47.359375 -30.34375 46.796875 -29.578125 46.296875 -28.921875 C 45.804688 -28.273438 45.148438 -27.320312 44.328125 -26.0625 C 43.515625 -24.800781 42.820312 -23.734375 42.25 -22.859375 C 41.675781 -21.984375 40.882812 -20.738281 39.875 -19.125 C 38.863281 -17.519531 38.054688 -16.28125 37.453125 -15.40625 C 36.847656 -14.53125 35.890625 -12.835938 34.578125 -10.328125 C 31.523438 -4.367188 29.5625 -1.390625 28.6875 -1.390625 C 28.25 -1.390625 27.78125 -1.660156 27.28125 -2.203125 C 26.789062 -2.753906 26.546875 -3.34375 26.546875 -3.96875 C 26.546875 -4.601562 26.925781 -5.898438 27.6875 -7.859375 C 28.457031 -9.828125 29.320312 -11.90625 30.28125 -14.09375 C 31.238281 -16.28125 32.097656 -18.957031 32.859375 -22.125 C 33.628906 -25.289062 34.015625 -28.269531 34.015625 -31.0625 C 34.015625 -32.3125 33.644531 -33.390625 32.90625 -34.296875 C 32.164062 -35.203125 31.519531 -35.65625 30.96875 -35.65625 C 30.425781 -35.65625 29.945312 -35.570312 29.53125 -35.40625 C 29.125 -35.238281 28.675781 -34.945312 28.1875 -34.53125 C 27.695312 -34.125 27.234375 -33.6875 26.796875 -33.21875 C 26.359375 -32.757812 25.828125 -32.117188 25.203125 -31.296875 C 24.578125 -30.484375 24.003906 -29.722656 23.484375 -29.015625 C 22.960938 -28.304688 22.316406 -27.363281 21.546875 -26.1875 C 20.785156 -25.007812 20.085938 -23.957031 19.453125 -23.03125 C 18.828125 -22.101562 18.023438 -20.875 17.046875 -19.34375 C 16.066406 -17.8125 15.097656 -16.332031 14.140625 -14.90625 C 13.179688 -13.488281 11.910156 -11.5 10.328125 -8.9375 C 7.210938 -3.90625 5.460938 -1.390625 5.078125 -1.390625 C 4.472656 -1.390625 3.828125 -1.785156 3.140625 -2.578125 C 2.460938 -3.367188 2.125 -4.023438 2.125 -4.546875 C 2.125 -5.066406 2.191406 -5.65625 2.328125 -6.3125 C 2.472656 -6.96875 2.679688 -7.800781 2.953125 -8.8125 C 3.222656 -9.820312 3.492188 -10.816406 3.765625 -11.796875 C 4.585938 -14.253906 5.460938 -17.132812 6.390625 -20.4375 C 7.316406 -23.75 7.957031 -27.273438 8.3125 -31.015625 C 8.664062 -34.765625 8.882812 -37.398438 8.96875 -38.921875 C 9.050781 -40.453125 9.421875 -41.21875 10.078125 -41.21875 C 10.847656 -41.21875 11.613281 -40.710938 12.375 -39.703125 C 13.132812 -38.691406 13.515625 -37.613281 13.515625 -36.46875 C 13.515625 -30.625 11.550781 -22.070312 7.625 -10.8125 C 14.226562 -22.457031 19.210938 -30.421875 22.578125 -34.703125 C 25.941406 -38.992188 28.929688 -41.140625 31.546875 -41.140625 C 32.804688 -41.140625 34.28125 -40.085938 35.96875 -37.984375 C 37.664062 -35.878906 38.515625 -33.554688 38.515625 -31.015625 C 38.515625 -28.472656 37.941406 -25.238281 36.796875 -21.3125 C 40.953125 -28.738281 44.378906 -33.898438 47.078125 -36.796875 C 49.785156 -39.691406 52.3125 -41.140625 54.65625 -41.140625 Z M 54.65625 -41.140625 "/></g></g></g></svg>